{
  "asset": {
    "generator": "Khronos glTF Blender I/O v3.6.28",
    "version": "2.0"
  },
  "extensionsUsed": [
    "KHR_materials_specular",
    "KHR_materials_ior"
  ],
  "scene": 0,
  "scenes": [
    {
      "name": "Scene",
      "nodes": [
        0
      ]
    }
  ],
  "nodes": [
    {
      "mesh": 0,
      "name": "mascara funer치ria",
      "rotation": [
        0,
        0,
        -0.8090170621871948,
        0.5877852439880371
      ],
      "scale": [
        3.999999761581421,
        3.999999761581421,
        4
      ],
      "translation": [
        -71.25,
        33.02000045776367,
        -34.369998931884766
      ]
    }
  ],
  "materials": [
    {
      "doubleSided": true,
      "extensions": {
        "KHR_materials_specular": {
          "specularColorFactor": [
            0,
            0,
            0
          ]
        },
        "KHR_materials_ior": {
          "ior": 1.4500000476837158
        }
      },
      "name": "mascara_funer치ria",
      "pbrMetallicRoughness": {
        "baseColorTexture": {
          "index": 0
        },
        "metallicFactor": 0
      }
    }
  ],
  "meshes": [
    {
      "name": "mascara funer치ria",
      "primitives": [
        {
          "attributes": {
            "POSITION": 0,
            "NORMAL": 1,
            "TEXCOORD_0": 2
          },
          "indices": 3,
          "material": 0
        }
      ]
    }
  ],
  "textures": [
    {
      "sampler": 0,
      "source": 0
    }
  ],
  "images": [
    {
      "name": "mascara funer치ria",
      "uri": "mask_img0.png"
    }
  ],
  "accessors": [
    {
      "bufferView": 0,
      "componentType": 5126,
      "count": 26994,
      "max": [
        4.656515121459961,
        23.65956687927246,
        2.8902180194854736
      ],
      "min": [
        -2.728080987930298,
        14.548969268798828,
        -1.857720971107483
      ],
      "type": "VEC3"
    },
    {
      "bufferView": 1,
      "componentType": 5126,
      "count": 26994,
      "type": "VEC3"
    },
    {
      "bufferView": 2,
      "componentType": 5126,
      "count": 26994,
      "type": "VEC2"
    },
    {
      "bufferView": 3,
      "componentType": 5123,
      "count": 125019,
      "type": "SCALAR"
    }
  ],
  "bufferViews": [
    {
      "buffer": 0,
      "byteLength": 323928,
      "byteOffset": 0,
      "target": 34962
    },
    {
      "buffer": 0,
      "byteLength": 323928,
      "byteOffset": 323928,
      "target": 34962
    },
    {
      "buffer": 0,
      "byteLength": 215952,
      "byteOffset": 647856,
      "target": 34962
    },
    {
      "buffer": 0,
      "byteLength": 250040,
      "byteOffset": 863808,
      "target": 34963
    }
  ],
  "samplers": [
    {
      "magFilter": 9729,
      "minFilter": 9987
    }
  ],
  "buffers": [
    {
      "uri": "mask_data.bin",
      "byteLength": 1113848
    }
  ]
}