{
    "accessors" : [
        {
            "bufferView" : 0,
            "componentType" : 5123,
            "count" : 46356,
            "max" : [
                14555
            ],
            "min" : [
                0
            ],
            "type" : "SCALAR"
        },
        {
            "bufferView" : 1,
            "componentType" : 5126,
            "count" : 14556,
            "max" : [
                0.9424954056739807,
                0.8128451108932495,
                0.900973916053772
            ],
            "min" : [
                -0.9474585652351379,
                -1.18715500831604,
                -0.9009949564933777
            ],
            "type" : "VEC3"
        },
        {
            "bufferView" : 2,
            "componentType" : 5126,
            "count" : 14556,
            "max" : [
                1.0,
                1.0,
                1.0
            ],
            "min" : [
                -1.0,
                -1.0,
                -1.0
            ],
            "type" : "VEC3"
        },
        {
            "bufferView" : 3,
            "componentType" : 5126,
            "count" : 14556,
            "max" : [
                0.9999759793281555,
                1.998665988445282
            ],
            "min" : [
                0.002448640065267682,
                1.0005531199858524
            ],
            "type" : "VEC2"
        }
    ],
    "asset" : {
        "generator" : "Khronos Blender glTF 2.0 exporter",
        "version" : "2.0"
    },
    "bufferViews" : [
        {
            "buffer" : 0,
            "byteLength" : 92712,
            "byteOffset" : 0,
            "target" : 34963
        },
        {
            "buffer" : 0,
            "byteLength" : 174672,
            "byteOffset" : 92712,
            "target" : 34962
        },
        {
            "buffer" : 0,
            "byteLength" : 174672,
            "byteOffset" : 267384,
            "target" : 34962
        },
        {
            "buffer" : 0,
            "byteLength" : 116448,
            "byteOffset" : 442056,
            "target" : 34962
        }
    ],
    "buffers" : [
        {
            "byteLength" : 558504,
            "uri" : "DamagedHelmet.bin"
        }
    ],
  "images": [
    {
      "name": "textured_0_v2",
      "uri": "statue_img0.jpg"
    }
  ],
  "accessors": [
    {
      "bufferView": 0,
      "componentType": 5126,
      "count": 47790,
      "max": [
        0.619693398475647,
        0.9477811455726624,
        0.519895076751709
      ],
      "min": [
        -0.8425807952880859,
        -0.7923204898834229,
        -0.7299526333808899
      ],
      "type": "VEC3"
    },
    {
      "bufferView": 1,
      "componentType": 5126,
      "count": 47790,
      "type": "VEC3"
    },
    {
      "bufferView": 2,
      "componentType": 5126,
      "count": 47790,
      "type": "VEC2"
    },
    {
      "bufferView": 3,
      "componentType": 5123,
      "count": 256851,
      "type": "SCALAR"
    }
  ],
  "bufferViews": [
    {
      "buffer": 0,
      "byteLength": 573480,
      "byteOffset": 0,
      "target": 34962
    },
    {
      "buffer": 0,
      "byteLength": 573480,
      "byteOffset": 573480,
      "target": 34962
    },
    {
      "buffer": 0,
      "byteLength": 382320,
      "byteOffset": 1146960,
      "target": 34962
    },
    {
      "buffer": 0,
      "byteLength": 513704,
      "byteOffset": 1529280,
      "target": 34963
    }
  ],
  "samplers": [
    {
      "magFilter": 9729,
      "minFilter": 9987
    }
  ],
  "buffers": [
    {
      "uri": "statue_data.bin",
      "byteLength": 2042984
    }
  ]
}
