<?xml version="1.0" encoding="UTF-8"?>
<!-- Generator: Adobe Illustrator 28.0.0, SVG Export Plug-In . SVG Version: 6.00 Build 0)  -->
<svg xmlns="http://www.w3.org/2000/svg" xmlns:xlink="http://www.w3.org/1999/xlink" version="1.1" id="Layer_1" x="0px" y="0px" viewBox="0 0 182.9 31.1" style="enable-background:new 0 0 182.9 31.1;" xml:space="preserve">
<style type="text/css">
	.st0{fill:#FFFFFF;}
</style>
<g id="Layer_2_00000027564155845248542190000006166279031956536235_">
	<g id="Layer_1-2">
		<path class="st0" d="M75.4,21.9l-5.6-6.5l5.6-6.8l5.6,6.7L75.4,21.9z M70.7,15.3l4.7,5.5l4.7-5.6l-4.7-5.6L70.7,15.3z"></path>
		<path class="st0" d="M4.1,20.1C1,20.1,0,18.7,0,16.7h1.1c0,1.3,0.8,2.4,3,2.4s2.7-0.8,2.7-1.6c0-2.5-6.4-0.8-6.4-4    c0-1.7,1.2-2.7,3.6-2.7s3.8,1.1,3.8,3.2H6.6c-0.1-1.6-1-2.3-2.7-2.3s-2.5,0.6-2.5,1.7c0,2.2,6.5,0.7,6.5,4    C7.8,18.6,7,20.1,4.1,20.1z"></path>
		<path class="st0" d="M17.5,16.8h-2.3V20h-1.1v-9.2h3.2c3.4,0,3.7,1.7,3.7,3S20.9,16.8,17.5,16.8z M17.4,11.8h-2.2v4.1h2.2    c2.3,0,2.5-1.1,2.5-2S19.8,11.8,17.4,11.8z"></path>
		<path class="st0" d="M33.4,20l-0.8-1.9h-5L26.9,20h-1.2l3.8-9.2h1.5l3.7,9.2H33.4z M30.2,11.7L28,17.2h4.4L30.2,11.7z"></path>
		<path class="st0" d="M43.9,20.1c-3.4,0-4.2-2.1-4.2-4.7s0.9-4.7,4.2-4.7c2.9,0,4.1,1.7,4.1,3.6h-1.2c0.1-1.4-1-2.7-2.5-2.7    c-0.1,0-0.3,0-0.4,0c-2.5,0-3.1,1.7-3.1,3.7s0.6,3.7,3.1,3.7c1.4,0.2,2.8-0.8,3-2.2c0-0.2,0-0.3,0-0.5H48    C48,18.5,46.8,20.1,43.9,20.1z"></path>
		<path class="st0" d="M54.2,20v-9.2h6.2v0.9h-5.1v3.1H60v0.9h-4.7V19h5.1v0.9L54.2,20z"></path>
		<path class="st0" d="M101.8,17.8c5-0.7,5.7-3.7,5.7-6.2c0-2.8-0.9-6.6-8.8-6.6h-9.4h-7.4H78l-2.6,3.4l-2.6-3.4H61.2l8.7,10.2    l-9.5,11h11.6l3.5-4.4l3.4,4.4H90l-9-11l7.7-9.5h1.1c7.2,0,8.1,3,8.1,5.9c0,2.6-0.7,5-5.7,5.6l-0.6,0.1l7.3,9.1h9.8L101.8,17.8z     M80.1,15.3l8.5,10.4h-9.4l-3.7-4.8l-3.8,4.8h-9.8l8.9-10.3l-8.1-9.5h9.8l3,3.8l2.9-3.8h3.5h6L80.1,15.3z M98.6,11.7    c0-2.1-0.5-4.7-3.9-5.9h4c7.2,0,8.1,3,8.1,5.9c0,2.6-0.7,5-5.7,5.6h-5.9C98.1,16.1,98.6,13.7,98.6,11.7z M92.9,17.9h8l6.3,7.8h-8    L92.9,17.9z"></path>
		<g>
			<path class="st0" d="M111.9,10.8h3.3c3.4,0,3.7,1.7,3.7,3c0,1.3-0.2,2.9-3.6,2.9H113v3.2h-1.1V10.8z M115.2,15.8     c2.3,0,2.5-1.1,2.5-2c0-0.9-0.2-2.1-2.6-2.1H113v4.1H115.2z"></path>
			<path class="st0" d="M123.3,10.8h3.2c3.4,0,3.7,1.6,3.7,2.8c0,2.4-1.9,2.6-3.6,2.6h-0.7l4.5,3.7h-1.6l-4.4-3.9v3.9h-1.1V10.8z      M126.6,15.4c2.3,0,2.5-1,2.5-1.8c0-0.8-0.3-1.9-2.6-1.9h-2.1v3.7H126.6z"></path>
			<path class="st0" d="M134.5,15.4c0-2.5,0.9-4.7,4.3-4.7c3.5,0,4.3,2.1,4.3,4.7c0,2.5-0.9,4.6-4.3,4.6     C135.3,20,134.5,17.9,134.5,15.4z M142,15.4c0-2.1-0.6-3.7-3.2-3.7c-2.6,0-3.2,1.7-3.2,3.7c0,2.1,0.6,3.7,3.2,3.7     C141.4,19.1,142,17.4,142,15.4z"></path>
			<path class="st0" d="M146.1,19.9V19c0.4,0,0.7,0.1,0.9,0.1c1.5,0,1.8-0.6,1.8-1.8v-6.5h1.1v6.4c0,1.9-0.5,2.8-2.6,2.8     C147,20,146.6,20,146.1,19.9z"></path>
			<path class="st0" d="M154.7,10.8h6.2v0.9h-5.1v3.1h4.7v0.9h-4.7V19h5.1v0.9h-6.2V10.8z"></path>
			<path class="st0" d="M164.8,15.4c0-2.5,0.9-4.7,4.2-4.7c2.9,0,4.1,1.7,4.1,3.6h-1.1c0-1.5-0.9-2.7-2.9-2.7     c-2.5,0-3.1,1.7-3.1,3.7c0,2.1,0.6,3.7,3.1,3.7c2.1,0,2.9-1.2,3-2.7h1.1c0,2-1.1,3.6-4.1,3.6C165.6,20,164.8,17.9,164.8,15.4z"></path>
			<path class="st0" d="M179,11.7h-2.9v-0.9h6.8v0.9h-2.9v8.2H179V11.7z"></path>
		</g>
	</g>
</g>
</svg>
