<?xml version="1.0" encoding="UTF-8"?>
<!-- Generator: Adobe Illustrator 28.0.0, SVG Export Plug-In . SVG Version: 6.00 Build 0)  -->
<svg xmlns="http://www.w3.org/2000/svg" xmlns:xlink="http://www.w3.org/1999/xlink" version="1.1" id="Layer_1" x="0px" y="0px" viewBox="0 0 129.5 31.1" style="enable-background:new 0 0 129.5 31.1;" xml:space="preserve">
<style type="text/css">
	.st0{fill:#FFFFFF;}
</style>
<g id="Layer_2_00000062181020596895707190000012980267470239081651_">
	<g id="Layer_1-2">
		<path class="st0" d="M100.9,31H84.5l-4.9-6.4L74.5,31h-17l13.9-16.1L58.7,0h17l3.9,5l3.7-5h16.4L87.7,14.9L100.9,31z M85,30h13.8    L86.4,14.9L97.7,1H83.8l-4.2,5.6L75.2,1H60.9l11.8,13.9L59.6,30H74l5.6-7L85,30z"></path>
		<path class="st0" d="M79.6,24.6L71.4,15l8.2-10l8.1,9.8L79.6,24.6z M72.7,14.9l6.9,8.1l6.8-8.2l-6.8-8.2L72.7,14.9z"></path>
		<path class="st0" d="M128.1,31.1h-14.3l-10.7-13.2l0.9-0.1c7.3-0.8,8.3-4.4,8.3-8.1c0-4.2-1.4-8.6-11.9-8.6H88.9V0h24.6    c11.6,0,12.9,5.5,12.9,9.6c0,3.6-1,7.9-8.3,9L128.1,31.1z M114.3,30.1H126l-9.9-12.2l0.9-0.1c7.3-0.8,8.3-4.4,8.3-8.1    c0-4.2-1.4-8.6-11.8-8.6h-5.9c5,1.8,5.8,5.6,5.8,8.6c0,3.6-1,7.9-8.3,9L114.3,30.1z"></path>
		<rect x="104.1" y="17.7" class="st0" width="13" height="1"></rect>
	</g>
	<g>
		<path class="st0" d="M0.3,10.7h6.3v0.9H1.4v3.1h4.7v0.9H1.4V19h5.2v0.9H0.3V10.7z"></path>
		<path class="st0" d="M11.8,15.3c0-2.5,0.9-4.7,4.2-4.7c2.9,0,4.1,1.3,4.1,3H19c-0.1-1.2-0.8-2.1-2.9-2.1c-2.5,0-3.1,1.7-3.1,3.8    s0.7,3.8,3.1,3.8c2.2,0,3-1.3,3-3.2h-3.4v-0.9h4.5v5h-0.7L19.3,18c-0.5,1.2-1.4,2-3.3,2C12.8,20,11.8,17.8,11.8,15.3z"></path>
		<path class="st0" d="M29.1,17.1l-3.7-6.4h1.3l3,5.4l3.2-5.4H34l-3.8,6.4v2.8h-1.1V17.1z"></path>
		<path class="st0" d="M39.3,10.7h3.3c3.5,0,3.8,1.7,3.8,3s-0.2,2.9-3.6,2.9h-2.3v3.2h-1.1V10.7z M42.7,15.7c2.4,0,2.5-1.1,2.5-2    c0-0.9-0.2-2.1-2.6-2.1h-2.2v4.1H42.7z"></path>
		<path class="st0" d="M54.1,11.6h-2.9v-0.9h6.9v0.9h-2.9v8.3h-1.1V11.6z"></path>
	</g>
</g>
</svg>
